M48
INCH,TZ
T01C.013
T02C.02
T03C.023622
T04C.025591
T05C.040157
T06C.097441
T07C.129921
T08C.188976
;LEADER: 12 
;HEADER: 
;CODE  : ASCII 
;FILE  : newtools-1-2.drl for board #Taaaaav04656.tmp ... layers TOP and BOTTOM
;T01 Holesize 1. = 13.000000 Tolerance = +0.000000/-0.000000 PLATED MILS Quantity = 18
;T02 Holesize 2. = 20.000000 Tolerance = +0.000000/-0.000000 PLATED MILS Quantity = 2
;T03 Holesize 3. = 23.622000 Tolerance = +0.000000/-0.000000 PLATED MILS Quantity = 28
;T04 Holesize 4. = 25.591000 Tolerance = +0.000000/-0.000000 PLATED MILS Quantity = 10
;T05 Holesize 5. = 40.157000 Tolerance = +0.000000/-0.000000 PLATED MILS Quantity = 29
;T06 Holesize 6. = 97.441000 Tolerance = +0.000000/-0.000000 PLATED MILS Quantity = 6
;T07 Holesize 7. = 129.921000 Tolerance = +0.000000/-0.000000 PLATED MILS Quantity = 4
;T08 Holesize 8. = 188.976000 Tolerance = +0.000000/-0.000000 PLATED MILS Quantity = 4
%
G90
T01
X314960Y53150
X322834Y57086
X330708Y61024
X338188Y64960
X341338Y71653
X319291Y77165
X311023Y92520
X319291Y92520
X326771Y92520
X340550Y92520
X346456Y157480
X392913Y198031
X393700Y204724
X390944Y207480
X397637Y210630
X393700Y214566
X393306Y220078
X362204Y228346
T02
X127067Y197736
X173228Y206693
T03
X283464Y145669
X283464Y155669
X283464Y165669
X283464Y175669
X283464Y185669
X283464Y195669
X283464Y205669
X283464Y215669
X283464Y225669
X283464Y235669
X283464Y245669
X283464Y255669
X283464Y265669
X283464Y275669
X450786Y273700
X450786Y263700
X450786Y253701
X450786Y243700
X450786Y233700
X450786Y223701
X450786Y213701
X450786Y203701
X450786Y193700
X450786Y183701
X450786Y173701
X450786Y163700
X450786Y153701
X450786Y143700
T04
X438818Y55118
X448818Y55118
X448818Y65118
X438818Y65118
X438818Y75118
X448818Y75118
X448818Y85118
X438818Y85118
X438818Y95118
X448818Y95118
T05
X173228Y334330
X173228Y344330
X173228Y354330
X309054Y157480
X309054Y147480
X309054Y137480
X332676Y137480
X332676Y147480
X332676Y157480
X373700Y318740
X383700Y318740
X373700Y328740
X383700Y328740
X373700Y350236
X383700Y350236
X373700Y360236
X383700Y360236
X393700Y360236
X393700Y350236
X393700Y328740
X393700Y318740
X422755Y318740
X432755Y318740
X442755Y318740
X422755Y328740
X432755Y328740
X442755Y328740
X452755Y328740
X452755Y318740
T06
X99606Y354724
X118110Y354724
X136614Y354724
X136614Y373621
X118110Y373621
X99606Y373621
T07
X15000Y15000
X15000Y378701
X457441Y378701
X457441Y15000
T08
X33464Y61024
X33464Y150918
X33464Y240813
X33464Y330708
M30
